<?xml version="1.0" encoding="utf-8"?>
<!-- Generator: Adobe Illustrator 27.5.0, SVG Export Plug-In . SVG Version: 6.00 Build 0)  -->
<svg version="1.1" xmlns="http://www.w3.org/2000/svg" xmlns:xlink="http://www.w3.org/1999/xlink" x="0px" y="0px"
	 viewBox="0 0 500 500" style="enable-background:new 0 0 500 500;" xml:space="preserve">
<g id="BACKGROUND">
</g>
<g id="OBJECTS">
	<g>
		<g>
			<path style="fill:#72AB76;" d="M364.244,382.728c0,0,21.133,14.082,33.949,2.579c12.816-11.503-0.753-20.069,11.244-33.94
				c11.997-13.871,29.922-12.645,32.63-30.375c2.708-17.73-14.466-13.206,0.386-31.6c14.853-18.394,7.498-71.359-13.526-66.21
				c-21.024,5.149-13.133,54.039-18.454,60.121c-5.321,6.083-18.685,1.688-20.389,14.652c-1.704,12.964,6.348,29.094-3.388,37.234
				C376.96,343.329,358.306,361.977,364.244,382.728z"/>
		</g>
		<path style="fill:none;stroke:#A5CF8F;stroke-miterlimit:10;" d="M349.248,392.514c0,0,67.87-39.383,88.504-136.144"/>
	</g>
	<g>
		<g>
			<path style="fill:#72AB76;" d="M356.058,409.06c0,0,0.766,15.118,10.825,17.167c10.059,2.049,9.339-7.489,20.241-6.674
				c10.901,0.815,16.682,9.831,26.131,4.829c9.449-5.002,1.182-11.616,15.263-11.04c14.081,0.575,36.821-21.76,26.888-29.995
				c-9.933-8.235-30.533,12.91-35.335,12.523c-4.802-0.386-7.446-8.344-14.256-4.555c-6.811,3.789-11.672,13.374-19.027,11.605
				C379.434,401.151,363.881,398.846,356.058,409.06z"/>
		</g>
		<path style="fill:none;stroke:#A5CF8F;stroke-miterlimit:10;" d="M351.911,406.568c0,0,40.133,13.345,93.985-14.92"/>
	</g>
	<g>
		<g>
			<g>
				<path style="fill:#A5CF8F;" d="M361.113,406.361c0,0,12.801,15.753,25.308,10.005c12.507-5.748,4.176-15.5,16.618-23.251
					c12.443-7.75,25.837-2.571,32.101-15.467c6.264-12.895-7.918-13.506,7.775-24.034c15.693-10.528,22.615-52.705,5.345-53.751
					c-17.27-1.046-22.818,38.148-28.32,41.532c-5.502,3.384-14.665-3.134-19.035,6.36c-4.37,9.494-2.04,23.715-11.4,27.625
					C380.147,379.291,361.491,389.113,361.113,406.361z"/>
			</g>
			<path style="fill:none;stroke:#72AB76;stroke-miterlimit:10;" d="M353.744,406.856c0,0,54.905-17.247,90.799-90.479"/>
		</g>
		<path style="fill:#72AB76;" d="M391.953,401.676c5.142-11.186,19.395-18.632,29.624-21.241
			c10.228-2.609,9.256-8.104,10.087-18.726c0.81-10.344,23.951-31.335,25.165-32.429c-2.382,10.095-7.383,19.955-13.912,24.335
			c-15.693,10.528-1.511,11.138-7.775,24.034c-6.264,12.895-19.659,7.716-32.101,15.467c-12.443,7.75-4.111,17.502-16.618,23.25
			c-7.015,3.224-14.121-0.316-19.011-4.046c-0.006-0.016-0.012-0.032-0.012-0.032S386.811,412.862,391.953,401.676z"/>
	</g>
	<g>
		<g>
			<path style="fill:#72AB76;" d="M220.471,382.728c0,0-21.133,14.082-33.949,2.579c-12.816-11.503,0.753-20.069-11.244-33.94
				c-11.997-13.871-29.922-12.645-32.63-30.375c-2.708-17.73,14.466-13.206-0.387-31.6c-14.852-18.394-7.497-71.359,13.526-66.21
				c21.024,5.149,13.133,54.039,18.454,60.121c5.321,6.083,18.685,1.688,20.389,14.652c1.704,12.964-6.348,29.094,3.388,37.234
				C207.756,343.329,226.41,361.977,220.471,382.728z"/>
		</g>
		<path style="fill:none;stroke:#A5CF8F;stroke-miterlimit:10;" d="M235.467,392.514c0,0-67.87-39.383-88.504-136.144"/>
	</g>
	<g>
		<g>
			<path style="fill:#72AB76;" d="M228.658,409.06c0,0-0.766,15.118-10.825,17.167c-10.059,2.049-9.339-7.489-20.241-6.674
				c-10.902,0.815-16.682,9.831-26.131,4.829c-9.449-5.002-1.183-11.616-15.264-11.04c-14.081,0.575-36.821-21.76-26.888-29.995
				s30.532,12.91,35.334,12.523c4.802-0.386,7.446-8.344,14.256-4.555c6.811,3.789,11.672,13.374,19.027,11.605
				C205.281,401.151,220.834,398.846,228.658,409.06z"/>
		</g>
		<path style="fill:none;stroke:#A5CF8F;stroke-miterlimit:10;" d="M232.805,406.568c0,0-40.133,13.345-93.985-14.92"/>
	</g>
	<g>
		<g>
			<g>
				<path style="fill:#A5CF8F;" d="M223.602,406.361c0,0-12.801,15.753-25.308,10.005c-12.507-5.748-4.176-15.5-16.618-23.251
					c-12.443-7.75-25.837-2.571-32.102-15.467c-6.264-12.895,7.919-13.506-7.775-24.034c-15.693-10.528-22.615-52.705-5.345-53.751
					c17.27-1.046,22.818,38.148,28.32,41.532c5.502,3.384,14.665-3.134,19.035,6.36c4.37,9.494,2.04,23.715,11.4,27.625
					C204.569,379.291,223.224,389.113,223.602,406.361z"/>
			</g>
			<path style="fill:none;stroke:#72AB76;stroke-miterlimit:10;" d="M230.971,406.856c0,0-54.905-17.247-90.799-90.479"/>
		</g>
		<path style="fill:#72AB76;" d="M192.763,401.676c-5.142-11.186-19.395-18.632-29.624-21.241
			c-10.228-2.609-9.256-8.104-10.087-18.726c-0.81-10.344-23.951-31.335-25.165-32.429c2.382,10.095,7.383,19.955,13.912,24.335
			c15.693,10.528,1.511,11.138,7.775,24.034c6.264,12.895,19.659,7.716,32.102,15.467c12.442,7.75,4.111,17.502,16.618,23.25
			c7.015,3.224,14.121-0.316,19.01-4.046c0.006-0.016,0.012-0.032,0.012-0.032S197.905,412.862,192.763,401.676z"/>
	</g>
	<g>
		<ellipse style="fill:#E2E2E2;" cx="291.326" cy="434.671" rx="135.706" ry="8.302"/>
		<g>
			<path style="fill:#28478F;" d="M415.998,433.848H167.318c-3.579,0-6.48-2.901-6.48-6.48V57.391c0-3.579,2.901-6.48,6.48-6.48
				h248.679c3.579,0,6.48,2.901,6.48,6.48v369.977C422.478,430.947,419.577,433.848,415.998,433.848z"/>
			<rect x="173.053" y="64.246" style="fill:#FCFCFC;" width="234.683" height="369.531"/>
			<g>
				<rect x="238.347" y="209.273" style="fill:#D9D9D9;" width="138.813" height="5.857"/>
				<rect x="238.347" y="232.436" style="fill:#D9D9D9;" width="138.813" height="5.857"/>
				<rect x="238.347" y="255.6" style="fill:#D9D9D9;" width="138.813" height="5.857"/>
				<rect x="238.347" y="278.763" style="fill:#D9D9D9;" width="138.813" height="5.857"/>
				<rect x="238.347" y="301.926" style="fill:#D9D9D9;" width="138.813" height="5.857"/>
				<rect x="238.347" y="325.09" style="fill:#D9D9D9;" width="138.813" height="5.857"/>
				<rect x="270.191" y="351.24" style="fill:#D9D9D9;" width="106.969" height="5.857"/>
				<rect x="270.191" y="374.404" style="fill:#D9D9D9;" width="106.969" height="5.857"/>
				<rect x="270.191" y="396.65" style="fill:#D9D9D9;" width="106.969" height="5.857"/>
				<g>
					<path style="fill:#D9D9D9;" d="M224.449,238.257h-26.228c-0.886,0-1.605-0.719-1.605-1.605v-26.228
						c0-0.886,0.719-1.605,1.605-1.605h26.228c0.886,0,1.605,0.719,1.605,1.605v26.228
						C226.054,237.538,225.335,238.257,224.449,238.257z"/>
					<polyline style="fill:none;stroke:#28478F;stroke-width:3;stroke-miterlimit:10;" points="202.196,222.794 209.556,229.361 
						220.474,218.039 					"/>
				</g>
				<g>
					<path style="fill:#D9D9D9;" d="M224.449,284.598h-26.228c-0.886,0-1.605-0.719-1.605-1.605v-26.228
						c0-0.886,0.719-1.605,1.605-1.605h26.228c0.886,0,1.605,0.719,1.605,1.605v26.228
						C226.054,283.879,225.335,284.598,224.449,284.598z"/>
					<polyline style="fill:none;stroke:#FCFCFC;stroke-width:3;stroke-miterlimit:10;" points="202.196,269.134 209.556,275.702 
						220.474,264.379 					"/>
				</g>
				<g>
					<path style="fill:#D9D9D9;" d="M224.449,330.938h-26.228c-0.886,0-1.605-0.719-1.605-1.605v-26.228
						c0-0.887,0.719-1.605,1.605-1.605h26.228c0.886,0,1.605,0.719,1.605,1.605v26.228
						C226.054,330.219,225.335,330.938,224.449,330.938z"/>
					<polyline style="fill:none;stroke:#FCFCFC;stroke-width:3;stroke-miterlimit:10;" points="202.196,315.475 209.556,322.042 
						220.474,310.72 					"/>
				</g>
			</g>
			<g>
				<g>
					<polygon style="fill:#FFDA78;" points="211.28,425.126 205.399,416.56 195.143,418.228 210.57,382.139 226.707,389.037 					
						"/>
					<path style="fill:#E0AB67;" d="M201.385,403.626c0.238,0.425,0.512,0.82,0.877,1.139c1.777,1.552,4.965,1.042,7.253,2.019
						c2.287,0.978,4.121,3.635,6.471,3.847c0.531,0.048,1.053-0.04,1.571-0.187l9.15-21.407l-16.137-6.898L201.385,403.626z"/>
					<polygon style="fill:#FFDA78;" points="231.063,425.126 236.944,416.56 247.2,418.228 231.774,382.139 215.637,389.037 					
						"/>
					<path style="fill:#E0AB67;" d="M240.959,403.626c-0.238,0.425-0.512,0.82-0.877,1.139c-1.777,1.552-4.965,1.042-7.253,2.019
						c-2.287,0.978-4.121,3.635-6.471,3.847c-0.531,0.048-1.053-0.04-1.571-0.187l-9.15-21.407l16.137-6.898L240.959,403.626z"/>
					<path style="fill:#FABD6E;" d="M251.625,379.785c0,3.017-3.045,5.516-3.929,8.238c-0.916,2.821,0.047,6.626-1.662,8.974
						c-1.726,2.372-5.654,2.623-8.025,4.35c-2.348,1.709-3.792,5.376-6.613,6.293c-2.722,0.884-6.034-1.206-9.051-1.206
						s-6.329,2.089-9.051,1.205c-2.821-0.916-4.265-4.584-6.613-6.293c-2.372-1.726-6.3-1.978-8.025-4.35
						c-1.709-2.348-0.746-6.153-1.662-8.974c-0.884-2.722-3.929-5.221-3.929-8.238s3.045-5.516,3.929-8.238
						c0.916-2.821-0.047-6.626,1.662-8.975c1.726-2.372,5.654-2.623,8.025-4.349c2.348-1.709,3.792-5.376,6.614-6.293
						c2.722-0.884,6.034,1.206,9.051,1.206c3.017,0,6.329-2.09,9.051-1.206c2.821,0.916,4.265,4.584,6.613,6.293
						c2.372,1.726,6.3,1.978,8.026,4.35c1.709,2.348,0.746,6.153,1.662,8.974C248.58,374.269,251.625,376.768,251.625,379.785z"/>
					
						<ellipse transform="matrix(0.5222 -0.8528 0.8528 0.5222 -218.9515 370.355)" style="fill:#E0AB67;" cx="221.041" cy="380.577" rx="20.68" ry="20.68"/>
					<circle style="fill:#FFDA78;" cx="222.343" cy="379.785" r="20.68"/>
					
						<ellipse transform="matrix(0.2288 -0.9735 0.9735 0.2288 -196.5311 509.2023)" style="fill:#FFE68A;" cx="223.127" cy="378.646" rx="18.594" ry="18.594"/>
					<path style="fill:#FFFFA6;" d="M230.484,374.271c0,2.008-1.628,3.636-3.636,3.636c-2.008,0-3.636-1.628-3.636-3.636
						c0-2.008,1.628-3.636,3.636-3.636C228.857,370.634,230.484,372.262,230.484,374.271z"/>
					<g>
						<path style="fill:#FFDA78;" d="M220.957,353.135c0.229,0,0.461-0.015,0.693-0.037c-2.519-0.238-5.19-1.623-7.523-1.342
							C216.326,351.991,218.722,353.135,220.957,353.135z"/>
						<path style="fill:#FFDA78;" d="M220.957,406.434c-2.235,0-4.631,1.144-6.83,1.379c2.333,0.28,5.005-1.104,7.524-1.342
							C221.418,406.45,221.186,406.434,220.957,406.434z"/>
						<path style="fill:#FFDA78;" d="M247.696,371.547c-0.916-2.821,0.047-6.626-1.662-8.974c-1.726-2.372-5.654-2.624-8.026-4.35
							c-2.348-1.709-3.792-5.377-6.613-6.293c-0.706-0.229-1.451-0.256-2.221-0.174c0.283,0.034,0.562,0.086,0.834,0.174
							c2.821,0.916,4.265,4.584,6.613,6.293c2.372,1.726,6.3,1.978,8.026,4.35c1.709,2.348,0.746,6.153,1.662,8.974
							c0.884,2.722,3.929,5.221,3.929,8.238c0,3.017-3.045,5.516-3.929,8.238c-0.916,2.821,0.047,6.626-1.662,8.975
							c-1.726,2.372-5.654,2.623-8.025,4.35c-2.348,1.709-3.792,5.376-6.614,6.293c-0.272,0.088-0.551,0.14-0.834,0.174
							c0.769,0.082,1.515,0.055,2.22-0.174c2.821-0.916,4.265-4.584,6.613-6.293c2.372-1.726,6.3-1.978,8.025-4.35
							c1.709-2.348,0.747-6.153,1.662-8.975c0.884-2.722,3.929-5.221,3.929-8.238C251.625,376.768,248.58,374.269,247.696,371.547z"
							/>
					</g>
				</g>
			</g>
			<text transform="matrix(1 0 0 1 237.6363 144.2408)" style="fill:#E67893; font-family:'Rubik-Bold'; font-size:61.456px;">ISO</text>
			<text transform="matrix(1 0 0 1 217.524 173.5943)" style="fill:#E67893; font-family:'Rubik-Regular'; font-size:20.6677px;">CERTIFICATION</text>
			<g>
				<path style="fill:#FABD6E;" d="M335.502,48.811h-15.606c-3.097-12.569-14.412-21.903-27.937-21.903
					c-13.525,0-24.841,9.334-27.937,21.903h-15.606c-1.195,0-2.163,0.969-2.163,2.163V65.15c0,1.195,0.968,2.163,2.163,2.163h87.087
					c1.195,0,2.164-0.968,2.164-2.163V50.974C337.665,49.779,336.697,48.811,335.502,48.811z M286.599,43.654
					c0-2.867,2.324-5.191,5.191-5.191c2.867,0,5.191,2.324,5.191,5.191c0,2.749-2.143,4.975-4.845,5.157h-0.692
					C288.742,48.63,286.599,46.403,286.599,43.654z"/>
				<path style="fill:#FAD282;" d="M330.707,64.159h-44.826c-0.886,0-1.605-0.719-1.605-1.605v-1.117
					c0-0.887,0.719-1.605,1.605-1.605h44.826c0.887,0,1.605,0.718,1.605,1.605v1.117C332.312,63.441,331.594,64.159,330.707,64.159z
					"/>
				<g>
					<path style="fill:#E0AB67;" d="M292.989,26.952c-0.344-0.012-0.684-0.044-1.031-0.044c-13.525,0-24.841,9.334-27.937,21.903
						h2.062C269.1,36.565,279.926,27.415,292.989,26.952z"/>
					<path style="fill:#E0AB67;" d="M296.982,43.654c0,2.51-1.793,4.565-4.16,5.045c0.226,0.046,0.45,0.096,0.685,0.112h0.692
						c2.703-0.181,4.845-2.408,4.845-5.157c0-2.867-2.324-5.191-5.191-5.191c-0.353,0-0.698,0.037-1.031,0.104
						C295.195,39.045,296.982,41.14,296.982,43.654z"/>
					<path style="fill:#E0AB67;" d="M248.314,65.15V50.974c0-1.195,0.968-2.163,2.163-2.163h-2.062
						c-1.195,0-2.163,0.969-2.163,2.163V65.15c0,1.195,0.968,2.163,2.163,2.163h2.062C249.282,67.314,248.314,66.345,248.314,65.15z
						"/>
				</g>
				<g>
					<path style="fill:#FAD282;" d="M290.82,38.561c-0.315-0.06-0.638-0.098-0.97-0.098c-2.867,0-5.191,2.324-5.191,5.191
						c0,2.749,2.143,4.975,4.845,5.157h0.692c0.214-0.014,0.418-0.063,0.624-0.102c-2.397-0.457-4.221-2.524-4.221-5.055
						C286.599,41.119,288.418,39.016,290.82,38.561z"/>
					<path style="fill:#FAD282;" d="M317.954,48.811h1.941c-3.097-12.569-14.412-21.903-27.937-21.903
						c-0.327,0-0.646,0.031-0.97,0.042C304.078,27.386,314.933,36.546,317.954,48.811z"/>
					<path style="fill:#FAD282;" d="M335.502,48.811h-1.941c1.195,0,2.163,0.969,2.163,2.163V65.15c0,1.195-0.969,2.163-2.163,2.163
						h1.941c1.195,0,2.164-0.968,2.164-2.163V50.974C337.665,49.779,336.697,48.811,335.502,48.811z"/>
				</g>
			</g>
		</g>
		<polygon style="fill:#D9D9D9;" points="407.736,64.246 407.736,433.778 396.875,433.778 		"/>
	</g>
	<g>
		<path style="fill:#E2E2E2;" d="M395.639,464.333c0,4.585-18.354,8.302-40.994,8.302c-22.641,0-40.995-3.717-40.995-8.302
			c0-4.585,18.354-8.302,40.995-8.302C377.285,456.031,395.639,459.748,395.639,464.333z"/>
		<g>
			<g>
				<g>
					<g>
						<g>
							<path style="fill:#FAC0AC;" d="M381.618,244.744c5.076,4.806,9.232,8.913,11.104,10.917c0.703,0.753,1.016,1.788,0.829,2.801
								c-1.404,7.596-14.545,27.537-19.11,34.661l-7.499-4.618c0,0,11.659-25.16,11.045-27.934c0,0-2.692-1.75-6.713-4.823"/>
							<path style="fill:#E67893;" d="M370.055,257.039c-4.965-3.794-10.736-10.898-17.189-17.928
								c-3.274-3.566-4.696-8.654-4.068-12.627c0.691-4.376,6.941-2.994,6.941-2.994c7.08,5.63,18.493,14.261,25.879,21.254"/>
						</g>
					</g>
				</g>
			</g>
		</g>
		<polygon style="fill:#28478F;" points="328.775,292.035 328.749,384.01 337.787,461.63 348.42,460.922 347.793,383.338 
			371.635,287.072 		"/>
		<polygon style="fill:#28478F;" points="350.156,294.117 363.448,389.149 386.003,461.725 391.869,455.159 380.693,387.074 
			376.291,310.689 375.122,295.909 		"/>
		<path style="fill:#28478F;" d="M337.601,458.359c-1.057,0-10.315,4.921-15.482,7.712c-1.087,0.587-0.781,2.222,0.444,2.381
			l12.824,1.662l4.329-0.857c1.022-0.202,2.081,0.034,2.92,0.651l1.456,1.071c0.326,0.24,0.723,0.362,1.127,0.348l1.811-0.066
			c0.992-0.036,1.765-0.872,1.725-1.863l-0.5-12.35L337.601,458.359z"/>
		<path style="fill:#28478F;" d="M391.856,454.917c-1.305,0-15.405,3.326-21.102,4.682c-0.74,0.176-0.816,1.198-0.111,1.485
			l9.006,3.669l3.315,0.113c1.223,0.042,2.313,0.785,2.798,1.909l0,0c0.106,0.246,0.3,0.443,0.544,0.553l1.009,0.456
			c0.345,0.156,0.726,0.214,1.102,0.167l3.912-0.484c1.113-0.138,1.912-1.139,1.798-2.255L391.856,454.917z"/>
		<g>
			<g>
				<polygon style="fill:#28478F;" points="236.056,209.663 255.426,195.678 261.39,201.784 241.712,215.985 				"/>
				<g>
					<polygon style="fill:#FAC0AC;" points="235.088,210.792 232.003,218.567 240.385,216.611 					"/>
					<path style="fill:#28478F;" d="M243.621,211.942c0.354,2.259-1.374,4.406-3.859,4.795c-2.485,0.389-4.786-1.127-5.14-3.385
						c-0.354-2.259,1.374-4.406,3.859-4.795C240.966,208.167,243.267,209.683,243.621,211.942z"/>
					<path style="fill:#FAC0AC;" d="M262.897,198.028c0.354,2.259-1.374,4.406-3.859,4.795c-2.485,0.389-4.786-1.126-5.14-3.385
						c-0.354-2.259,1.374-4.406,3.859-4.795C260.242,194.253,262.543,195.769,262.897,198.028z"/>
					<path style="fill:#28478F;" d="M260.261,198.189c0.13,0.832-0.506,1.622-1.421,1.765c-0.915,0.143-1.762-0.415-1.892-1.247
						c-0.13-0.832,0.506-1.622,1.421-1.765C259.284,196.799,260.131,197.357,260.261,198.189z"/>
				</g>
				<path style="fill:#28478F;" d="M232.786,216.594l-0.783,1.973l2.271-0.53C233.657,217.68,233.144,217.19,232.786,216.594z"/>
			</g>
			<path style="fill:#FAC0AC;" d="M252.776,206.585c-0.983,0.183-2-0.128-2.68-0.862c-2.457-2.654-4.072-5.788-5.479-5.118
				c-1.621,0.772-0.628,1.639-2.011,2.632c-0.434,0.311-1.848-0.028-2.138,1.107c-0.29,1.134-0.317,2.18-1.334,2.969
				c-1.003,0.777-0.422,3.383-0.077,4.271c0.255,0.658,1.322,1.847,1.91,2.417c2.045,2.217,5.342,4.162,7.246,4.927
				c2.681,1.077,5.355-1.85,7.019-4.641c1.256-2.107,0.162-8.131,0.162-8.131C254.477,206.286,253.606,206.431,252.776,206.585z"/>
			<polygon style="fill:#FAC0AC;" points="244.964,200.534 249.205,200.201 246.701,201.997 			"/>
		</g>
		<path style="fill:#FAC0AC;" d="M312.758,202.57l-2.101,5.089c-0.146,0.48,0.118,0.988,0.594,1.145l2.272,0.747L312.758,202.57z"/>
		<path style="fill:#E67893;" d="M287.618,246.904l32.977,7.683c3.66,0.549,2.247-26.716,2.247-26.716l-17.612,2.225l-13.177-0.494"
			/>
		<path style="fill:#FAC0AC;" d="M323.249,227.826c0.06-0.034,0.119-0.067,0.177-0.101c1.677-0.973,0.451-14.581-1.599-17.886
			l11.737-21.144c0,0,0.855,13.563,4.309,26.255c1.125,4.135,5.182,7.251,6.784,7.784"/>
		<path style="fill:#E69E96;" d="M328.44,215.88l1.68-8.64c0,0-2.773,5.777-2.797,6.114c-0.021,0.311-3.147,3.01-3.636,3.431
			c0.4,2.773,0.575,6.731,0.477,8.887L328.44,215.88z"/>
		<path style="fill:#FAC0AC;" d="M314.612,217.661c0.126,0.834,0.779,1.526,1.618,1.61c9.431,0.938,22.508-15.113,21.161-24.704
			c-0.676-4.812-5.99-6.368-10.997-6.864c-7.749-0.768-13.562-1.018-14.185,12.967C312.203,200.81,314.612,217.661,314.612,217.661z
			"/>
		<path style="fill:#28478F;" d="M313.267,193.352l-1.122-1.81c-2.525-4.073,0.931-9.249,5.656-8.444
			c12.339,2.101,22.854,5.462,22.757,11.348c-0.264,15.993-2.383,20.257-2.383,20.257s-6.819,3.742-8.471-9.702
			c-5.383,4.284-7.849-9.219-7.849-9.219C321.633,193.666,316.312,194.06,313.267,193.352z"/>
		<g>
			<path style="fill:#FAC0AC;" d="M330.945,206.154c-0.72,1.887-2.474,3.019-3.917,2.527c-1.444-0.492-2.03-2.42-1.311-4.308
				c0.72-1.887,2.474-3.018,3.917-2.527C331.078,202.339,331.665,204.267,330.945,206.154z"/>
		</g>
		<polygon style="fill:#FAC0AC;" points="292.053,229.601 281.477,227.674 252.307,211.682 244.366,216.079 279.214,242.455 
			288.307,244.915 		"/>
		<path style="fill:#E67893;" d="M313.82,246.41c-0.299-7.893-3.32-15.064-1.73-15.758c0,0,10.303-4.266,12.083-5.107
			c0,0,14.308-1.076,16.89-5.253c0,0,14.256,2.243,14.779,3.377c7.873,17.064,7.201,21.843,7.201,21.843l5.413,24.018l7.659,26.756
			c-5.279,3.425-33.781,11.016-47.124,10.305c0,0-2.271-25.601-3.057-29.777C325.932,276.814,314.081,253.313,313.82,246.41z"/>
	</g>
	<g>
		<path style="opacity:0.16;fill:#6C467A;" d="M122.747,462.655c0.02,3.196-16.63,5.891-37.189,6.02
			c-20.559,0.129-37.242-2.357-37.262-5.553c-0.02-3.196,16.63-5.891,37.189-6.019C106.044,456.974,122.727,459.459,122.747,462.655
			z"/>
		<path style="fill:#FAC0AC;" d="M109.856,260.842c0,0,1.144,16.961,0.806,21.889c0,0,3.771,51.961-3.32,36.489l-1.246-4.797
			c0,0-5.349-10.876-2.017-28.851l-2.927-21.583L109.856,260.842z"/>
		<path style="fill:#FAC0AC;" d="M98.161,272.376c0,0,9.369,73.001,11.158,101.939c0.217,3.515-1.813,7.829-3.316,11.014
			l-0.981,4.832c-0.398,4.744-3.146,19.762-4.029,24.44l-6.244,29.879l6.155,10.954l-4.989,2.153l-9.974-10.961
			c0,0,2.537-4.47,1.356-22.893c-1.131-17.645-3.888-33.477-0.553-40.617c5.408-11.581,1.033-24.535-1.455-31.701
			c-5.96-17.163-31.133-48.011-9.647-79.397L98.161,272.376z"/>
		<path style="fill:#FAC0AC;" d="M92.131,230.359c-5.33-2.023-3.973-4.711-3.867-6.874c0.322-6.608-1.724-13.329,0.161-17.889
			l-10.171-4.513c0,0,1.391,4.835-1.164,21.328c-0.591,3.814-7.279,8.005-7.951,8.381c-4.037,2.261,2.66,25.065,23.129,13.796
			c0.088-0.045,0.174-0.095,0.257-0.149C96.627,242.118,96.053,231.848,92.131,230.359z"/>
		<path style="fill:#E69E96;" d="M88.428,221.943c-0.099-1.401,0.299-1.853,0.158-3.333c-5.126-0.776-9.28-5.158-11-6.245
			c-0.033,0.528,0.263,4.489,0.218,5.028c1.765,2.827,4.846,6.84,10.352,7.221C88.156,224.613,88.451,222.281,88.428,221.943z"/>
		<path style="fill:#526080;" d="M108.502,459.341c-4.656-1.39-7.008-3.118-7.736-4.269c0.237,1.008-4.556,0.489-8.475-1.564
			c0,0-5.348-7.66-6.35-6.883c-2.389,9.633-0.775,3.585,1.49,16.991l2.216-0.014l0.687-2.831c0,0,2.458-0.02,6.453,2.89
			c4.13,3.009,16.885,0.512,16.885,0.512C116.057,462.771,113.522,460.839,108.502,459.341z"/>
		<path style="fill:#FAC0AC;" d="M98.748,282.274c0,0-6.126,72.332-6.784,95.923l-3.562,12.152
			c-0.616,4.721-4.9,25.586-5.996,30.219l-7.877,28.173l4.679,11.177l-5.083,1.921l-7.374-13.538c0,0,1.161-0.058,1.397-15.922
			c0.263-17.679-1.281-31.768,2.379-38.747c5.935-11.32,0.022-31.068-2.134-38.341c-5.164-17.419-8.575-52.904,1.651-70.278
			L98.748,282.274z"/>
		<path style="fill:#526080;" d="M85.817,465.59c-4.246-2.363-6.169-4.558-6.631-5.84c0.014,1.035-4.554-0.507-7.937-3.358
			c0,0-3.567-8.635-4.713-8.092c-4.414,8.89-0.887,5.59-1.571,19.169l2.828-0.164l-0.024-4.244c0,0,2.404,0.511,5.676,4.216
			c3.382,3.83,16.376,4.148,16.376,4.148C92.452,470.571,90.395,468.137,85.817,465.59z"/>
		<path style="fill:#E67893;" d="M108.892,255.396c-0.871-1.421-3.284-11.719-4.474-16.778c-0.403-1.712-1.712-5.338-6.203-5.906
			c-2.079-0.263-4.415-1.771-6.148-2.679c0,0,0,0.001-0.001,0.002c-0.921,2.758-9.272,4.243-14.341,1.286l-4.934-3.322
			c-6.662,4.513-6.011,3.568-7.574,4.892c-7.672,6.499-8.014,7.414-1.69,23.655l4.447,8.744c1.319,9.975-3.239,42.805-3.239,42.805
			c21.11,9.744,38.137,1.629,41.763-17.306l-1.209-20.143C109.185,268.094,112.975,262.057,108.892,255.396z"/>
		<path style="fill:#FAC0AC;" d="M94.173,195.549c0,0,1.598,2.193,1.182,7.064c-0.105,1.235,1.048,7.575,1.048,7.575
			c0.308,7.786-4.749,12.659-6.588,12.617c-4.432-0.101-7.906-2.518-9.971-4.734c-3.793-4.071-5.106-19.972-0.928-23.274
			C85.413,189.663,92.181,192.843,94.173,195.549z"/>
		<path style="fill:#28478F;" d="M65.687,291.497c0,0-9.008,28.7,1.265,87.115c0,0,11.481,8.661,45.517-0.82
			c0,0,6.855-68.472-5.97-87.004C106.499,290.788,95.958,295.219,65.687,291.497z"/>
		<path style="fill:#EDEDED;" d="M90.243,303.66l-32.49-12.391c-0.399-0.152-0.599-0.599-0.447-0.997l16.705-43.802
			c0.152-0.399,0.598-0.599,0.997-0.447l32.49,12.391c0.399,0.152,0.599,0.598,0.447,0.997L91.24,303.214
			C91.088,303.612,90.642,303.812,90.243,303.66z"/>
		<path style="fill:#FAC0AC;" d="M78.644,283.15c0,0,2.86-2.946,4.674-2.988s5.187-0.428,5.553,0.27
			c0.476,0.907-2.003,1.442-4.697,1.719L78.644,283.15z"/>
		<g>
			<path style="fill:#FAC0AC;" d="M81.771,281.491c0,0,6.899,1.389,7.937,1.853c1.531,0.685,0.886,2.216,0.139,2.607
				c-0.554,0.29,0.707,1.377-0.784,2.51c-0.931,0.708-0.121,1.007-0.725,1.813c-0.475,0.633-1.782,0.413-1.956,1.194
				c-0.319,1.437-1.711,0.92-2.758,1.022c-1.047,0.102-4.875-0.886-7.426-3.919C72.87,284.615,81.771,281.491,81.771,281.491z"/>
		</g>
		<g>
			<g>
				<g>
					<g>
						<path style="fill:#FAC0AC;" d="M47.24,263.338c-3.304,8.316-5.21,10.846-3.717,14.709c1.615,4.18,39.558,13.994,44.452,12.406
							l1.464-4.614c0,0-1.573-1.22-4.863-1.737c-7.857-1.234-18.485-11.684-26.345-13.605c0,0,1.168-0.843,4.551-5.718"/>
						<path style="fill:#E67893;" d="M60.163,269.169c3.981-6.9,11.043-16.847,12.369-22.939c4.205-19.314-10.157-14.58-13.294-6.55
							c-3.844,9.841-10.459,18.378-12.685,23.98L60.163,269.169z"/>
					</g>
				</g>
			</g>
		</g>
		<polyline style="fill:none;stroke:#28478F;stroke-width:0.5;stroke-linecap:round;stroke-miterlimit:10;" points="
			100.834,239.762 103.574,248.465 107.439,253.523 		"/>
		<path style="fill:#FAC0AC;" d="M94.579,203.393c0,0,1.63,3.834,4.137,6.42c0.841,0.868-2.002,3.376-3.183,3.425
			C92.911,213.345,94.579,203.393,94.579,203.393z"/>
		<path style="fill:#FAC0AC;" d="M87.448,282.882c0,0,4.029,0.705,4.331,0.705s3.521-0.311,3.827-0.302
			c0.831,0.025,0.428,1.712-1.637,1.964c-2.065,0.252-3.047,0.957-4.759,0.655C86.909,285.497,87.448,282.882,87.448,282.882z"/>
		<path style="fill:#FAC0AC;" d="M85.887,285.541c0,0,5.872,0.326,6.229,0.288c0.357-0.038,4.132-0.753,4.496-0.782
			c0.986-0.08,0.688,1.649-1.728,2.159c-2.416,0.51-4.535,1.203-6.592,1.118C85.527,288.21,85.887,285.541,85.887,285.541z"/>
		<path style="fill:#28478F;" d="M74.103,195.612c1.654-3.098,0.771-7.029-1.611-9.165c-3.668-3.288-10.588-2.052-12.589,2.417
			c-1.483,3.312-0.009,7.824,3.525,9.769C67.154,200.685,72.13,199.308,74.103,195.612z"/>
		<path style="fill:#28478F;" d="M80.313,207.665c0,0,1.343-3.626-0.134-8.594c0,0,6.236-6.555,13.487-4.138
			c0,0-11.876-9.291-19.396-1.637c-7.52,7.654-5.741,18.38,3.659,23.618L80.313,207.665z"/>
		<path style="fill:#FAC0AC;" d="M75.836,212.227c1.247,1.84,3.307,2.528,4.601,1.535c1.294-0.993,1.332-3.289,0.085-5.13
			c-1.247-1.84-3.307-2.528-4.6-1.535C74.627,208.09,74.589,210.387,75.836,212.227z"/>
		<path style="fill:none;stroke:#28478F;stroke-width:0.5;stroke-linecap:round;stroke-miterlimit:10;" d="M85.416,404.932
			l2.954-9.669c0,0,5.909-5.237,4.431-13.429"/>
		
			<line style="fill:none;stroke:#28478F;stroke-width:0.5;stroke-linecap:round;stroke-miterlimit:10;" x1="65.416" y1="260.464" x2="68.769" y2="251.994"/>
	</g>
</g>
</svg>
